<?xml version="1.0" encoding="iso-8859-1"?>
<!-- Generator: Adobe Illustrator 19.0.0, SVG Export Plug-In . SVG Version: 6.00 Build 0)  -->
<svg version="1.1" id="Layer_1" xmlns="http://www.w3.org/2000/svg" xmlns:xlink="http://www.w3.org/1999/xlink" x="0px" y="0px"
	 viewBox="0 0 512 512" style="enable-background:new 0 0 512 512;" xml:space="preserve">
<g>
	<g>
		<path d="M315.733,430.933c0-2.355-1.911-4.267-4.267-4.267h-25.6c-2.355,0-4.267,1.911-4.267,4.267v25.6
			c0,2.355,1.911,4.267,4.267,4.267h25.609c2.355,0,4.267-1.911,4.267-4.267L315.733,430.933z"/>
	</g>
</g>
<g>
	<g>
		<path d="M315.733,345.6c0-2.355-1.911-4.267-4.267-4.267h-25.6c-2.355,0-4.267,1.911-4.267,4.267v25.6
			c0,2.355,1.911,4.267,4.267,4.267h25.609c2.355,0,4.267-1.911,4.267-4.267L315.733,345.6z"/>
	</g>
</g>
<g>
	<g>
		<path d="M145.067,345.6c0-2.355-1.911-4.267-4.267-4.267h-25.6c-2.355,0-4.267,1.911-4.267,4.267v25.6
			c0,2.355,1.911,4.267,4.267,4.267h25.609c2.355,0,4.267-1.911,4.267-4.267L145.067,345.6z"/>
	</g>
</g>
<g>
	<g>
		<path d="M230.4,345.6c0-2.355-1.911-4.267-4.267-4.267h-25.6c-2.355,0-4.267,1.911-4.267,4.267v25.6
			c0,2.355,1.911,4.267,4.267,4.267h25.609c2.355,0,4.267-1.911,4.267-4.267L230.4,345.6z"/>
	</g>
</g>
<g>
	<g>
		<path d="M315.733,260.267c0-2.355-1.911-4.267-4.267-4.267h-25.6c-2.355,0-4.267,1.911-4.267,4.267v25.6
			c0,2.355,1.911,4.267,4.267,4.267h25.609c2.355,0,4.267-1.911,4.267-4.267L315.733,260.267z"/>
	</g>
</g>
<g>
	<g>
		<path d="M145.067,260.267c0-2.355-1.911-4.267-4.267-4.267h-25.6c-2.355,0-4.267,1.911-4.267,4.267v25.6
			c0,2.355,1.911,4.267,4.267,4.267h25.609c2.355,0,4.267-1.911,4.267-4.267L145.067,260.267z"/>
	</g>
</g>
<g>
	<g>
		<path d="M230.4,260.267c0-2.355-1.911-4.267-4.267-4.267h-25.6c-2.355,0-4.267,1.911-4.267,4.267v25.6
			c0,2.355,1.911,4.267,4.267,4.267h25.609c2.355,0,4.267-1.911,4.267-4.267L230.4,260.267z"/>
	</g>
</g>
<g>
	<g>
		<path d="M401.067,345.6c0-2.355-1.911-4.267-4.267-4.267h-25.6c-2.355,0-4.267,1.911-4.267,4.267v110.933
			c0,2.355,1.911,4.267,4.267,4.267h25.609c2.355,0,4.267-1.911,4.267-4.267L401.067,345.6z"/>
	</g>
</g>
<g>
	<g>
		<path d="M145.067,430.933c0-2.355-1.911-4.267-4.267-4.267h-25.6c-2.355,0-4.267,1.911-4.267,4.267v25.6
			c0,2.355,1.911,4.267,4.267,4.267h25.609c2.355,0,4.267-1.911,4.267-4.267L145.067,430.933z"/>
	</g>
</g>
<g>
	<g>
		<path d="M401.067,260.267c0-2.355-1.911-4.267-4.267-4.267h-25.6c-2.355,0-4.267,1.911-4.267,4.267v25.6
			c0,2.355,1.911,4.267,4.267,4.267h25.609c2.355,0,4.267-1.911,4.267-4.267L401.067,260.267z"/>
	</g>
</g>
<g>
	<g>
		<path d="M230.4,430.933c0-2.355-1.911-4.267-4.267-4.267h-25.6c-2.355,0-4.267,1.911-4.267,4.267v25.6
			c0,2.355,1.911,4.267,4.267,4.267h25.609c2.355,0,4.267-1.911,4.267-4.267L230.4,430.933z"/>
	</g>
</g>
<g>
	<g>
		<path d="M401.067,59.733c0-4.71-3.823-8.533-8.533-8.533H119.467c-4.71,0-8.533,3.823-8.533,8.533v102.4
			c0,4.71,3.823,8.533,8.533,8.533h273.075c4.71,0,8.533-3.823,8.533-8.533L401.067,59.733z"/>
	</g>
</g>
<g>
	<g>
		<path d="M435.2,0H76.8c-9.412,0-17.067,7.654-17.067,17.067v477.867c0,9.412,7.654,17.067,17.067,17.067h358.4
			c9.412,0,17.067-7.654,17.067-17.067V17.067C452.267,7.654,444.612,0,435.2,0z M162.133,460.8c0,9.412-7.654,17.067-17.067,17.067
			h-34.133c-9.412,0-17.067-7.654-17.067-17.067v-34.133c0-9.412,7.654-17.067,17.067-17.067h34.133
			c9.412,0,17.067,7.654,17.067,17.067V460.8z M162.133,375.467c0,9.412-7.654,17.067-17.067,17.067h-34.133
			c-9.412,0-17.067-7.654-17.067-17.067v-34.133c0-9.412,7.654-17.067,17.067-17.067h34.133c9.412,0,17.067,7.654,17.067,17.067
			V375.467z M162.133,290.133c0,9.412-7.654,17.067-17.067,17.067h-34.133c-9.412,0-17.067-7.654-17.067-17.067V256
			c0-9.412,7.654-17.067,17.067-17.067h34.133c9.412,0,17.067,7.654,17.067,17.067V290.133z M247.467,460.8
			c0,9.412-7.654,17.067-17.067,17.067h-34.133c-9.412,0-17.067-7.654-17.067-17.067v-34.133c0-9.412,7.654-17.067,17.067-17.067
			H230.4c9.412,0,17.067,7.654,17.067,17.067V460.8z M247.467,375.467c0,9.412-7.654,17.067-17.067,17.067h-34.133
			c-9.412,0-17.067-7.654-17.067-17.067v-34.133c0-9.412,7.654-17.067,17.067-17.067H230.4c9.412,0,17.067,7.654,17.067,17.067
			V375.467z M247.467,290.133c0,9.412-7.654,17.067-17.067,17.067h-34.133c-9.412,0-17.067-7.654-17.067-17.067V256
			c0-9.412,7.654-17.067,17.067-17.067H230.4c9.412,0,17.067,7.654,17.067,17.067V290.133z M332.8,460.8
			c0,9.412-7.654,17.067-17.067,17.067H281.6c-9.412,0-17.067-7.654-17.067-17.067v-34.133c0-9.412,7.654-17.067,17.067-17.067
			h34.133c9.412,0,17.067,7.654,17.067,17.067V460.8z M332.8,375.467c0,9.412-7.654,17.067-17.067,17.067H281.6
			c-9.412,0-17.067-7.654-17.067-17.067v-34.133c0-9.412,7.654-17.067,17.067-17.067h34.133c9.412,0,17.067,7.654,17.067,17.067
			V375.467z M332.8,290.133c0,9.412-7.654,17.067-17.067,17.067H281.6c-9.412,0-17.067-7.654-17.067-17.067V256
			c0-9.412,7.654-17.067,17.067-17.067h34.133c9.412,0,17.067,7.654,17.067,17.067V290.133z M418.133,460.8
			c0,9.412-7.654,17.067-17.067,17.067h-34.133c-9.412,0-17.067-7.654-17.067-17.067V341.333c0-9.412,7.654-17.067,17.067-17.067
			h34.133c9.412,0,17.067,7.654,17.067,17.067V460.8z M418.133,290.133c0,9.412-7.654,17.067-17.067,17.067h-34.133
			c-9.412,0-17.067-7.654-17.067-17.067V256c0-9.412,7.654-17.067,17.067-17.067h34.133c9.412,0,17.067,7.654,17.067,17.067V290.133
			z M418.133,170.667c0,9.412-7.654,17.067-17.067,17.067H110.933c-9.412,0-17.067-7.654-17.067-17.067V51.2
			c0-9.412,7.654-17.067,17.067-17.067h290.133c9.412,0,17.067,7.654,17.067,17.067V170.667z"/>
	</g>
</g>
<g>
</g>
<g>
</g>
<g>
</g>
<g>
</g>
<g>
</g>
<g>
</g>
<g>
</g>
<g>
</g>
<g>
</g>
<g>
</g>
<g>
</g>
<g>
</g>
<g>
</g>
<g>
</g>
<g>
</g>
</svg>
